# xmcd CD database file
#
# Track frame offsets:
#	182
#	32815
#	60967
#	78200
#	99217
#	124622
#	149912
#	167325
#	196382
#	222487
#
# Disc length: 3168 seconds
#
# Revision: 0
# Processed by: cddbd v1.5PL3 Copyright (c) Steve Scherf et al.
# Submitted via: CDex 1.51
#
DISCID=830c5e0a
DTITLE=Lenny Kravitz - Unplugged - Live USA
DYEAR=1994
DGENRE=Blues
TTITLE0=Sister
TTITLE1=Are You Gonna Go My Way
TTITLE2=Just Be A Woman
TTITLE3=Believe
TTITLE4=My Precious Love
TTITLE5=Rosemary
TTITLE6=Always On The Run
TTITLE7=Let Love Rule
TTITLE8=Alway On The Run (Electric Version)
TTITLE9=Are You Gonna Go My Way (Electric Version)
EXTD=YEAR: 1994
EXTT0=
EXTT1=
EXTT2=
EXTT3=
EXTT4=
EXTT5=
EXTT6=
EXTT7=
EXTT8=
EXTT9=
PLAYORDER=
